<?xml version="1.0" encoding="UTF-8"?>
<svg xmlns="http://www.w3.org/2000/svg" viewBox="0 0 1200 800" width="1200" height="800" font-family="Segoe UI, Arial, sans-serif">

  <!-- ========== DEFINITIONS ========== -->
  <defs>
    <!-- Arrow marker -->
    <marker id="arrowhead" markerWidth="10" markerHeight="7" refX="10" refY="3.5" orient="auto" fill="#0A1628">
      <polygon points="0 0, 10 3.5, 0 7" />
    </marker>
    <marker id="arrowhead-teal" markerWidth="10" markerHeight="7" refX="10" refY="3.5" orient="auto" fill="#00B4D8">
      <polygon points="0 0, 10 3.5, 0 7" />
    </marker>
    <marker id="arrowhead-red" markerWidth="10" markerHeight="7" refX="10" refY="3.5" orient="auto" fill="#E63946">
      <polygon points="0 0, 10 3.5, 0 7" />
    </marker>
    <!-- Drop shadow filter -->
    <filter id="shadow" x="-2%" y="-2%" width="104%" height="104%">
      <feDropShadow dx="1" dy="1" stdDeviation="2" flood-color="#00000020" />
    </filter>
  </defs>

  <!-- ========== BACKGROUND ========== -->
  <rect width="1200" height="800" fill="#FAFCFF" rx="0" />

  <!-- Title bar -->
  <rect x="0" y="0" width="1200" height="48" fill="#0A1628" />
  <text x="600" y="30" text-anchor="middle" fill="#FFFFFF" font-size="18" font-weight="bold">GRIDx STS Vending System -- System Architecture</text>
  <text x="1180" y="30" text-anchor="end" fill="#00B4D8" font-size="11">Hosted in Namibia</text>

  <!-- ================================================================ -->
  <!--  SECTION A: CLIENT CHANNELS (left)                               -->
  <!-- ================================================================ -->

  <!-- Group background -->
  <rect x="20" y="65" width="220" height="395" rx="10" fill="#F5F5F5" stroke="#D0D0D0" stroke-width="1" filter="url(#shadow)" />
  <rect x="20" y="65" width="220" height="30" rx="10" fill="#0A1628" />
  <rect x="20" y="85" width="220" height="10" fill="#0A1628" />
  <text x="130" y="85" text-anchor="middle" fill="#FFFFFF" font-size="12" font-weight="bold">CLIENT CHANNELS</text>

  <!-- 1. React Web App -->
  <rect x="40" y="110" width="180" height="58" rx="8" fill="#FFFFFF" stroke="#00B4D8" stroke-width="1.5" />
  <!-- Browser icon -->
  <rect x="52" y="120" width="22" height="16" rx="3" fill="none" stroke="#0A1628" stroke-width="1.2" />
  <line x1="52" y1="126" x2="74" y2="126" stroke="#0A1628" stroke-width="0.8" />
  <circle cx="57" cy="123" r="1.5" fill="#00B4D8" />
  <circle cx="62" cy="123" r="1.5" fill="#E63946" />
  <circle cx="67" cy="123" r="1.5" fill="#2A9D8F" />
  <text x="80" y="132" fill="#0A1628" font-size="11" font-weight="bold">React Web App</text>
  <text x="130" y="156" text-anchor="middle" fill="#666666" font-size="9">SPA / Browser</text>

  <!-- 2. USSD Channel -->
  <rect x="40" y="185" width="180" height="80" rx="8" fill="#FFFFFF" stroke="#00B4D8" stroke-width="1.5" />
  <!-- Phone icon -->
  <rect x="55" y="195" width="14" height="22" rx="3" fill="none" stroke="#0A1628" stroke-width="1.2" />
  <line x1="59" y1="212" x2="65" y2="212" stroke="#0A1628" stroke-width="1" />
  <text x="75" y="208" fill="#0A1628" font-size="11" font-weight="bold">USSD Channel</text>
  <line x1="40" y1="225" x2="220" y2="225" stroke="#E8E8E8" stroke-width="0.8" />
  <text x="130" y="240" text-anchor="middle" fill="#666666" font-size="9">Africa's Talking Gateway</text>
  <text x="130" y="255" text-anchor="middle" fill="#00B4D8" font-size="9">USSD Callback Endpoint</text>

  <!-- 3. POS Terminals -->
  <rect x="40" y="282" width="180" height="65" rx="8" fill="#FFFFFF" stroke="#00B4D8" stroke-width="1.5" />
  <!-- Terminal icon -->
  <rect x="52" y="292" width="18" height="14" rx="2" fill="none" stroke="#0A1628" stroke-width="1.2" />
  <rect x="56" y="306" width="10" height="4" rx="1" fill="none" stroke="#0A1628" stroke-width="1" />
  <text x="76" y="304" fill="#0A1628" font-size="11" font-weight="bold">POS Terminals</text>
  <text x="130" y="332" text-anchor="middle" fill="#666666" font-size="9">Third-Party / ISO 8583</text>
  <text x="130" y="344" text-anchor="middle" fill="#00B4D8" font-size="9">TCP Port 8583</text>

  <!-- ================================================================ -->
  <!--  SECTION B: APPLICATION LAYER (center)                           -->
  <!-- ================================================================ -->

  <!-- Group background -->
  <rect x="280" y="65" width="530" height="530" rx="10" fill="#F5F5F5" stroke="#D0D0D0" stroke-width="1" filter="url(#shadow)" />
  <rect x="280" y="65" width="530" height="30" rx="10" fill="#0A1628" />
  <rect x="280" y="85" width="530" height="10" fill="#0A1628" />
  <text x="545" y="85" text-anchor="middle" fill="#FFFFFF" font-size="12" font-weight="bold">APPLICATION LAYER</text>

  <!-- Nginx Reverse Proxy -->
  <rect x="370" y="108" width="310" height="48" rx="8" fill="#FFFFFF" stroke="#2A9D8F" stroke-width="2" />
  <rect x="370" y="108" width="310" height="22" rx="8" fill="#2A9D8F" />
  <rect x="370" y="122" width="310" height="8" fill="#2A9D8F" />
  <text x="525" y="124" text-anchor="middle" fill="#FFFFFF" font-size="11" font-weight="bold">Nginx Reverse Proxy / Load Balancer</text>
  <text x="525" y="147" text-anchor="middle" fill="#666666" font-size="9">Ports 80 / 443 (TLS) -- SSL Termination</text>

  <!-- Node.js Express API Server -->
  <rect x="300" y="175" width="490" height="400" rx="8" fill="#FFFFFF" stroke="#0A1628" stroke-width="2" />
  <rect x="300" y="175" width="490" height="26" rx="8" fill="#0A1628" />
  <rect x="300" y="193" width="490" height="8" fill="#0A1628" />
  <text x="545" y="193" text-anchor="middle" fill="#FFFFFF" font-size="12" font-weight="bold">Node.js Express API Server (Port 3000)</text>

  <!-- Sub-modules grid: 4 columns x 3 rows -->
  <!-- Row 1 -->
  <rect x="315" y="215" width="110" height="42" rx="6" fill="#E8F8FC" stroke="#00B4D8" stroke-width="1" />
  <text x="370" y="234" text-anchor="middle" fill="#0A1628" font-size="10" font-weight="600">Auth (JWT)</text>
  <text x="370" y="248" text-anchor="middle" fill="#888" font-size="8">Login / Tokens</text>

  <rect x="435" y="215" width="110" height="42" rx="6" fill="#E8F8FC" stroke="#00B4D8" stroke-width="1" />
  <text x="490" y="234" text-anchor="middle" fill="#0A1628" font-size="10" font-weight="600">Vending Engine</text>
  <text x="490" y="248" text-anchor="middle" fill="#888" font-size="8">STS Token Gen</text>

  <rect x="555" y="215" width="110" height="42" rx="6" fill="#E8F8FC" stroke="#00B4D8" stroke-width="1" />
  <text x="610" y="234" text-anchor="middle" fill="#0A1628" font-size="10" font-weight="600">Engineering</text>
  <text x="610" y="248" text-anchor="middle" fill="#888" font-size="8">Tokens</text>

  <rect x="675" y="215" width="110" height="42" rx="6" fill="#E8F8FC" stroke="#00B4D8" stroke-width="1" />
  <text x="730" y="234" text-anchor="middle" fill="#0A1628" font-size="10" font-weight="600">Customer Mgmt</text>
  <text x="730" y="248" text-anchor="middle" fill="#888" font-size="8">CRUD / Meters</text>

  <!-- Row 2 -->
  <rect x="315" y="270" width="110" height="42" rx="6" fill="#E8F8FC" stroke="#00B4D8" stroke-width="1" />
  <text x="370" y="289" text-anchor="middle" fill="#0A1628" font-size="10" font-weight="600">Transaction</text>
  <text x="370" y="303" text-anchor="middle" fill="#888" font-size="8">Engine</text>

  <rect x="435" y="270" width="110" height="42" rx="6" fill="#E8F8FC" stroke="#00B4D8" stroke-width="1" />
  <text x="490" y="289" text-anchor="middle" fill="#0A1628" font-size="10" font-weight="600">Batch Mgmt</text>
  <text x="490" y="303" text-anchor="middle" fill="#888" font-size="8">Bulk Operations</text>

  <rect x="555" y="270" width="110" height="42" rx="6" fill="#E8F8FC" stroke="#00B4D8" stroke-width="1" />
  <text x="610" y="289" text-anchor="middle" fill="#0A1628" font-size="10" font-weight="600">Commission</text>
  <text x="610" y="303" text-anchor="middle" fill="#888" font-size="8">Engine</text>

  <rect x="675" y="270" width="110" height="42" rx="6" fill="#E8F8FC" stroke="#00B4D8" stroke-width="1" />
  <text x="730" y="289" text-anchor="middle" fill="#0A1628" font-size="10" font-weight="600">Report Gen</text>
  <text x="730" y="303" text-anchor="middle" fill="#888" font-size="8">Analytics / Export</text>

  <!-- Row 3 -->
  <rect x="315" y="325" width="110" height="42" rx="6" fill="#E8F8FC" stroke="#00B4D8" stroke-width="1" />
  <text x="370" y="344" text-anchor="middle" fill="#0A1628" font-size="10" font-weight="600">Notification</text>
  <text x="370" y="358" text-anchor="middle" fill="#888" font-size="8">Service</text>

  <rect x="435" y="325" width="110" height="42" rx="6" fill="#E8F8FC" stroke="#00B4D8" stroke-width="1" />
  <text x="490" y="344" text-anchor="middle" fill="#0A1628" font-size="10" font-weight="600">PDF Receipts</text>
  <text x="490" y="358" text-anchor="middle" fill="#888" font-size="8">PDFKit / Print</text>

  <rect x="555" y="325" width="110" height="42" rx="6" fill="#E8F8FC" stroke="#00B4D8" stroke-width="1" />
  <text x="610" y="344" text-anchor="middle" fill="#0A1628" font-size="10" font-weight="600">Backup Service</text>
  <text x="610" y="358" text-anchor="middle" fill="#888" font-size="8">Scheduled Dumps</text>

  <rect x="675" y="325" width="110" height="42" rx="6" fill="#E8F8FC" stroke="#00B4D8" stroke-width="1" />
  <text x="730" y="344" text-anchor="middle" fill="#0A1628" font-size="10" font-weight="600">Permission</text>
  <text x="730" y="358" text-anchor="middle" fill="#888" font-size="8">Engine (RBAC)</text>

  <!-- Middleware bar -->
  <rect x="315" y="382" width="470" height="28" rx="5" fill="#0A1628" opacity="0.08" stroke="#0A1628" stroke-width="0.5" />
  <text x="545" y="400" text-anchor="middle" fill="#0A1628" font-size="9" font-weight="600">Middleware: Rate Limiter | Input Validation | Error Handler | Audit Logger</text>

  <!-- DB Access layer bar -->
  <rect x="315" y="420" width="470" height="28" rx="5" fill="#00B4D8" opacity="0.12" stroke="#00B4D8" stroke-width="0.5" />
  <text x="545" y="438" text-anchor="middle" fill="#0A1628" font-size="9" font-weight="600">Sequelize ORM / MySQL2 Driver | Connection Pool | Read Replicas</text>

  <!-- Database Tables listing -->
  <rect x="315" y="460" width="470" height="100" rx="5" fill="#FAFAFA" stroke="#D0D0D0" stroke-width="0.8" />
  <text x="325" y="476" fill="#0A1628" font-size="9" font-weight="bold">Database Tables:</text>

  <text x="325" y="492" fill="#555" font-size="8">users</text>
  <text x="385" y="492" fill="#555" font-size="8">customers</text>
  <text x="455" y="492" fill="#555" font-size="8">meters</text>
  <text x="515" y="492" fill="#555" font-size="8">transactions</text>
  <text x="600" y="492" fill="#555" font-size="8">vending_tokens</text>
  <text x="700" y="492" fill="#555" font-size="8">eng_tokens</text>

  <text x="325" y="508" fill="#555" font-size="8">tariffs</text>
  <text x="385" y="508" fill="#555" font-size="8">commissions</text>
  <text x="465" y="508" fill="#555" font-size="8">batches</text>
  <text x="525" y="508" fill="#555" font-size="8">batch_items</text>
  <text x="610" y="508" fill="#555" font-size="8">notifications</text>
  <text x="700" y="508" fill="#555" font-size="8">audit_logs</text>

  <text x="325" y="524" fill="#555" font-size="8">permissions</text>
  <text x="405" y="524" fill="#555" font-size="8">roles</text>
  <text x="455" y="524" fill="#555" font-size="8">role_permissions</text>
  <text x="565" y="524" fill="#555" font-size="8">settings</text>
  <text x="625" y="524" fill="#555" font-size="8">backups</text>
  <text x="690" y="524" fill="#555" font-size="8">debt_management</text>

  <text x="325" y="540" fill="#555" font-size="8">areas</text>
  <text x="375" y="540" fill="#555" font-size="8">meter_types</text>
  <text x="455" y="540" fill="#555" font-size="8">key_change_tokens</text>
  <text x="570" y="540" fill="#555" font-size="8">payment_methods</text>
  <text x="680" y="540" fill="#555" font-size="8">receipt_templates</text>

  <!-- ================================================================ -->
  <!--  SECTION C: DATA LAYER (right)                                   -->
  <!-- ================================================================ -->

  <!-- Group background -->
  <rect x="850" y="65" width="330" height="395" rx="10" fill="#F5F5F5" stroke="#D0D0D0" stroke-width="1" filter="url(#shadow)" />
  <rect x="850" y="65" width="330" height="30" rx="10" fill="#0A1628" />
  <rect x="850" y="85" width="330" height="10" fill="#0A1628" />
  <text x="1015" y="85" text-anchor="middle" fill="#FFFFFF" font-size="12" font-weight="bold">DATA LAYER</text>

  <!-- Primary MySQL -->
  <rect x="870" y="110" width="290" height="105" rx="8" fill="#FFFFFF" stroke="#0A1628" stroke-width="2" />
  <rect x="870" y="110" width="290" height="22" rx="8" fill="#0A1628" />
  <rect x="870" y="124" width="290" height="8" fill="#0A1628" />
  <text x="1015" y="126" text-anchor="middle" fill="#FFFFFF" font-size="11" font-weight="bold">Primary MySQL Server</text>
  <!-- DB cylinder icon -->
  <ellipse cx="895" cy="150" rx="12" ry="6" fill="none" stroke="#00B4D8" stroke-width="1.2" />
  <line x1="883" y1="150" x2="883" y2="168" stroke="#00B4D8" stroke-width="1.2" />
  <line x1="907" y1="150" x2="907" y2="168" stroke="#00B4D8" stroke-width="1.2" />
  <ellipse cx="895" cy="168" rx="12" ry="6" fill="none" stroke="#00B4D8" stroke-width="1.2" />
  <text x="920" y="157" fill="#0A1628" font-size="10" font-weight="600">InnoDB / Port 3306</text>
  <text x="920" y="172" fill="#888" font-size="8">Master / Read-Write</text>
  <text x="895" y="196" fill="#555" font-size="8">Automated daily backups</text>
  <text x="895" y="208" fill="#555" font-size="8">Binary logging enabled</text>

  <!-- Secondary MySQL -->
  <rect x="870" y="230" width="290" height="75" rx="8" fill="#FFFFFF" stroke="#2A9D8F" stroke-width="1.5" stroke-dasharray="4,3" />
  <rect x="870" y="230" width="290" height="22" rx="8" fill="#2A9D8F" />
  <rect x="870" y="244" width="290" height="8" fill="#2A9D8F" />
  <text x="1015" y="246" text-anchor="middle" fill="#FFFFFF" font-size="11" font-weight="bold">Secondary MySQL (Hot Standby)</text>
  <ellipse cx="895" cy="270" rx="12" ry="6" fill="none" stroke="#2A9D8F" stroke-width="1.2" />
  <line x1="883" y1="270" x2="883" y2="284" stroke="#2A9D8F" stroke-width="1.2" />
  <line x1="907" y1="270" x2="907" y2="284" stroke="#2A9D8F" stroke-width="1.2" />
  <ellipse cx="895" cy="284" rx="12" ry="6" fill="none" stroke="#2A9D8F" stroke-width="1.2" />
  <text x="920" y="276" fill="#0A1628" font-size="10">Async Replication / Read-Only</text>
  <text x="920" y="290" fill="#888" font-size="8">Failover target</text>

  <!-- DR / Replication arrow between primary and secondary -->
  <line x1="1015" y1="215" x2="1015" y2="230" stroke="#E63946" stroke-width="1.5" marker-end="url(#arrowhead-red)" />
  <text x="1040" y="226" fill="#E63946" font-size="8" font-weight="bold">DR Replication</text>

  <!-- Backup Storage -->
  <rect x="870" y="320" width="290" height="55" rx="8" fill="#FFFFFF" stroke="#0A1628" stroke-width="1.5" />
  <rect x="870" y="320" width="290" height="22" rx="8" fill="#0A1628" />
  <rect x="870" y="334" width="290" height="8" fill="#0A1628" />
  <text x="1015" y="336" text-anchor="middle" fill="#FFFFFF" font-size="11" font-weight="bold">Backup Storage</text>
  <text x="1015" y="362" text-anchor="middle" fill="#555" font-size="9">Encrypted SQL Dumps / Scheduled Cron</text>

  <!-- Arrow: secondary to backup -->
  <line x1="1015" y1="305" x2="1015" y2="320" stroke="#0A1628" stroke-width="1" stroke-dasharray="4,3" marker-end="url(#arrowhead)" />

  <!-- ================================================================ -->
  <!--  SECTION D: EXTERNAL SERVICES (bottom)                           -->
  <!-- ================================================================ -->

  <rect x="280" y="615" width="530" height="80" rx="10" fill="#F5F5F5" stroke="#D0D0D0" stroke-width="1" filter="url(#shadow)" />
  <rect x="280" y="615" width="530" height="30" rx="10" fill="#0A1628" />
  <rect x="280" y="635" width="530" height="10" fill="#0A1628" />
  <text x="545" y="635" text-anchor="middle" fill="#FFFFFF" font-size="12" font-weight="bold">EXTERNAL SERVICES</text>

  <!-- Africa's Talking -->
  <rect x="295" y="652" width="155" height="34" rx="6" fill="#FFFFFF" stroke="#00B4D8" stroke-width="1.2" />
  <text x="372" y="668" text-anchor="middle" fill="#0A1628" font-size="10" font-weight="600">Africa's Talking</text>
  <text x="372" y="680" text-anchor="middle" fill="#888" font-size="8">SMS Gateway</text>

  <!-- SMTP -->
  <rect x="468" y="652" width="155" height="34" rx="6" fill="#FFFFFF" stroke="#00B4D8" stroke-width="1.2" />
  <text x="545" y="668" text-anchor="middle" fill="#0A1628" font-size="10" font-weight="600">SMTP Email Server</text>
  <text x="545" y="680" text-anchor="middle" fill="#888" font-size="8">Transactional Email</text>

  <!-- STS Key Management -->
  <rect x="641" y="652" width="155" height="34" rx="6" fill="#FFFFFF" stroke="#E63946" stroke-width="1.2" stroke-dasharray="4,3" />
  <text x="718" y="668" text-anchor="middle" fill="#0A1628" font-size="10" font-weight="600">STS Key Mgmt</text>
  <text x="718" y="680" text-anchor="middle" fill="#E63946" font-size="8">Future HSM Integration</text>

  <!-- ================================================================ -->
  <!--  ARROWS: Client Channels to Application Layer                    -->
  <!-- ================================================================ -->

  <!-- React Web App -> Nginx -->
  <line x1="220" y1="135" x2="368" y2="130" stroke="#0A1628" stroke-width="1.5" marker-end="url(#arrowhead)" />
  <text x="285" y="123" fill="#0A1628" font-size="8" font-weight="bold">HTTPS</text>

  <!-- USSD -> Nginx -->
  <line x1="220" y1="220" x2="368" y2="140" stroke="#0A1628" stroke-width="1.5" marker-end="url(#arrowhead)" />
  <text x="270" y="175" fill="#0A1628" font-size="8" font-weight="bold">REST</text>

  <!-- POS -> API Server (ISO 8583 bypasses Nginx) -->
  <line x1="220" y1="310" x2="298" y2="310" stroke="#0A1628" stroke-width="1.5" marker-end="url(#arrowhead)" />
  <text x="245" y="302" fill="#0A1628" font-size="8" font-weight="bold">ISO 8583</text>
  <text x="245" y="326" fill="#888" font-size="7">TCP :8583</text>

  <!-- Nginx -> Node.js API -->
  <line x1="525" y1="156" x2="525" y2="175" stroke="#00B4D8" stroke-width="2" marker-end="url(#arrowhead-teal)" />

  <!-- ================================================================ -->
  <!--  ARROWS: Application Layer to Data Layer                         -->
  <!-- ================================================================ -->

  <!-- API Server -> Primary MySQL -->
  <line x1="790" y1="290" x2="868" y2="180" stroke="#00B4D8" stroke-width="1.5" marker-end="url(#arrowhead-teal)" />
  <text x="838" y="220" fill="#00B4D8" font-size="8" font-weight="bold">R/W</text>

  <!-- API Server -> Secondary MySQL (reads) -->
  <line x1="790" y1="330" x2="868" y2="270" stroke="#2A9D8F" stroke-width="1" stroke-dasharray="4,3" marker-end="url(#arrowhead-teal)" />
  <text x="838" y="310" fill="#2A9D8F" font-size="8">Reads</text>

  <!-- Backup Service -> Backup Storage -->
  <line x1="790" y1="350" x2="868" y2="350" stroke="#0A1628" stroke-width="1" stroke-dasharray="4,3" marker-end="url(#arrowhead)" />

  <!-- ================================================================ -->
  <!--  ARROWS: Application Layer to External Services                  -->
  <!-- ================================================================ -->

  <!-- Notification -> Africa's Talking -->
  <line x1="370" y1="570" x2="370" y2="650" stroke="#0A1628" stroke-width="1" marker-end="url(#arrowhead)" />
  <text x="380" y="610" fill="#888" font-size="7">SMS</text>

  <!-- Notification -> SMTP -->
  <line x1="545" y1="570" x2="545" y2="650" stroke="#0A1628" stroke-width="1" marker-end="url(#arrowhead)" />
  <text x="555" y="610" fill="#888" font-size="7">Email</text>

  <!-- Vending Engine -> STS Key Mgmt -->
  <line x1="718" y1="570" x2="718" y2="650" stroke="#E63946" stroke-width="1" stroke-dasharray="4,3" marker-end="url(#arrowhead-red)" />
  <text x="728" y="610" fill="#E63946" font-size="7">Future</text>

  <!-- ================================================================ -->
  <!--  HOSTED IN NAMIBIA badge                                         -->
  <!-- ================================================================ -->
  <rect x="870" y="420" width="150" height="36" rx="8" fill="#0A1628" />
  <text x="945" y="436" text-anchor="middle" fill="#00B4D8" font-size="9" font-weight="bold">HOSTED IN NAMIBIA</text>
  <text x="945" y="449" text-anchor="middle" fill="#FFFFFF" font-size="8">On-Premises / VPS</text>

  <!-- ================================================================ -->
  <!--  LEGEND                                                          -->
  <!-- ================================================================ -->
  <rect x="20" y="490" width="220" height="115" rx="8" fill="#FFFFFF" stroke="#D0D0D0" stroke-width="1" />
  <text x="130" y="510" text-anchor="middle" fill="#0A1628" font-size="10" font-weight="bold">Legend</text>

  <!-- Solid line -->
  <line x1="35" y1="528" x2="70" y2="528" stroke="#0A1628" stroke-width="1.5" marker-end="url(#arrowhead)" />
  <text x="80" y="532" fill="#555" font-size="9">Active data flow</text>

  <!-- Dashed line -->
  <line x1="35" y1="548" x2="70" y2="548" stroke="#0A1628" stroke-width="1" stroke-dasharray="4,3" marker-end="url(#arrowhead)" />
  <text x="80" y="552" fill="#555" font-size="9">Replication / Optional</text>

  <!-- Red dashed -->
  <line x1="35" y1="568" x2="70" y2="568" stroke="#E63946" stroke-width="1" stroke-dasharray="4,3" marker-end="url(#arrowhead-red)" />
  <text x="80" y="572" fill="#555" font-size="9">DR / Future integration</text>

  <!-- Teal line -->
  <line x1="35" y1="588" x2="70" y2="588" stroke="#00B4D8" stroke-width="1.5" marker-end="url(#arrowhead-teal)" />
  <text x="80" y="592" fill="#555" font-size="9">Internal service call</text>

  <!-- ================================================================ -->
  <!--  PROTOCOL/PORT LABELS                                            -->
  <!-- ================================================================ -->
  <rect x="20" y="620" width="220" height="75" rx="8" fill="#FFFFFF" stroke="#D0D0D0" stroke-width="1" />
  <text x="130" y="638" text-anchor="middle" fill="#0A1628" font-size="10" font-weight="bold">Ports &amp; Protocols</text>
  <text x="35" y="655" fill="#555" font-size="9">80 / 443  -- HTTP / HTTPS (Nginx)</text>
  <text x="35" y="670" fill="#555" font-size="9">3000       -- Node.js API Server</text>
  <text x="35" y="685" fill="#555" font-size="9">3306       -- MySQL Database</text>
  <text x="35" y="700" fill="#555" font-size="9" visibility="visible">8583       -- ISO 8583 (POS)</text>

  <!-- ================================================================ -->
  <!--  VERSION / FOOTER                                                -->
  <!-- ================================================================ -->
  <text x="600" y="785" text-anchor="middle" fill="#AAAAAA" font-size="9">GRIDx STS Vending System v1.0 -- Architecture Diagram -- 2026-03-12</text>

</svg>